<svg width="472" height="500" viewBox="0 0 472 500" fill="none" xmlns="http://www.w3.org/2000/svg">
<path d="M61.2 106H34V394H61.2V282.8L106.4 237.6L226.4 394H259.6L126 220.8L239.6 106H208.8L61.2 255.2V106Z" fill="black"/>
<path d="M322 394H352.8L466 106H438L404 196.4H272.8L239.6 106H211.6L322 394ZM338.4 370.8L282 219.6H394.8L338.4 370.8Z" fill="black"/>
<path d="M61.2 106H34V394H61.2V282.8L106.4 237.6L226.4 394H259.6L126 220.8L239.6 106H208.8L61.2 255.2V106Z" fill="black"/>
<path d="M322 394H352.8L466 106H438L404 196.4H272.8L239.6 106H211.6L322 394ZM338.4 370.8L282 219.6H394.8L338.4 370.8Z" fill="black"/>
</svg>
